<?xml version="1.0" standalone="no"?>
<!DOCTYPE svg PUBLIC "-//W3C//DTD SVG 20010904//EN"
 "http://www.w3.org/TR/2001/REC-SVG-20010904/DTD/svg10.dtd">
<svg version="1.0" xmlns="http://www.w3.org/2000/svg"
 width="310.000000pt" height="163.000000pt" viewBox="0 0 310.000000 163.000000"
 preserveAspectRatio="xMidYMid meet">
<metadata>
Created by potrace 1.16, written by Peter Selinger 2001-2019
</metadata>
<g transform="translate(0.000000,163.000000) scale(0.100000,-0.100000)"
fill="#000000" stroke="none">
<path d="M551 1009 c-74 -51 -107 -79 -93 -79 23 0 52 -34 52 -62 0 -10 -9
-27 -20 -38 -19 -19 -19 -22 -5 -36 8 -9 15 -22 15 -29 0 -41 21 -14 54 70
l38 95 42 0 43 0 41 -106 c23 -58 42 -109 42 -115 0 -5 -13 -9 -30 -9 -20 0
-35 8 -46 25 -23 36 -86 36 -102 0 -10 -23 -17 -25 -71 -25 -63 0 -72 6 -88
55 -5 17 -17 31 -26 33 -12 3 -16 -7 -19 -40 -3 -42 -4 -43 -38 -43 l-35 0 -3
67 c-3 64 -4 67 -22 55 -16 -9 -20 -23 -20 -67 l0 -56 198 -82 c108 -45 204
-82 213 -82 9 0 48 33 87 74 l72 74 0 127 0 127 -72 74 c-39 41 -76 74 -82 73
-6 0 -62 -36 -125 -80z"/>
<path d="M292 1006 l-72 -74 0 -118 0 -118 93 -93 93 -93 104 0 c57 0 101 3
98 6 -4 3 -82 41 -174 85 -92 44 -173 84 -181 90 -8 7 -13 33 -13 69 0 52 3
61 28 80 18 14 29 34 32 58 5 36 6 37 54 40 47 3 116 41 116 63 0 5 -15 16
-32 25 -18 9 -42 25 -54 35 -20 19 -21 19 -92 -55z"/>
<path d="M1020 935 l0 -105 35 0 c33 0 35 2 35 35 0 28 4 35 19 35 13 0 23
-11 31 -35 10 -31 15 -35 46 -35 32 0 35 2 28 23 -16 52 -24 67 -36 67 -7 0
-2 7 10 16 17 12 22 24 20 47 -4 42 -35 57 -120 57 l-68 0 0 -105z"/>
<path d="M1622 1028 c-8 -8 -12 -46 -12 -105 l0 -93 30 0 c28 0 30 3 30 38 l0
37 33 -38 c27 -33 37 -38 65 -35 l33 3 -25 34 c-15 19 -26 38 -26 42 0 4 12
21 26 38 l26 31 -39 0 c-31 0 -43 -6 -65 -32 l-27 -33 -1 63 c0 53 -3 62 -18
62 -10 0 -23 -5 -30 -12z"/>
<path d="M1273 980 c-39 -16 -56 -77 -33 -120 13 -24 72 -43 109 -35 62 13 88
93 44 136 -23 23 -87 33 -120 19z"/>
<path d="M1490 983 c-49 -18 -67 -84 -35 -129 27 -39 125 -41 125 -4 0 14 -9
20 -31 22 -63 6 -61 68 2 68 22 0 29 5 29 19 0 27 -47 40 -90 24z"/>
<path d="M2128 970 c-23 -17 -28 -29 -28 -64 0 -29 6 -48 19 -60 24 -22 79
-30 114 -17 35 13 37 40 2 33 -31 -5 -75 5 -75 18 0 6 25 10 55 10 51 0 55 2
55 24 0 63 -89 98 -142 56z"/>
<path d="M1810 970 c0 -6 7 -40 16 -75 l16 -65 44 0 c41 0 44 2 45 28 1 15 4
38 9 52 6 21 8 17 15 -27 l8 -53 42 0 43 0 16 65 c21 84 21 85 -12 85 -26 0
-30 -4 -38 -47 l-10 -48 -10 45 c-9 44 -10 45 -49 45 -39 0 -40 -1 -49 -45
l-9 -45 -10 48 c-8 43 -12 47 -38 47 -16 0 -29 -5 -29 -10z"/>
<path d="M1051 758 c-5 -13 -23 -58 -40 -101 -17 -43 -31 -80 -31 -82 0 -3 14
-5 31 -5 22 0 32 5 36 20 4 16 14 20 47 20 30 0 44 -5 54 -20 14 -23 78 -30
69 -7 -3 6 -21 54 -42 105 l-37 92 -39 0 c-32 0 -41 -4 -48 -22z"/>
<path d="M1432 678 l3 -103 30 0 c30 0 30 1 33 58 2 46 6 57 20 57 11 0 18 8
19 20 1 14 -4 20 -18 20 -14 0 -19 7 -19 25 0 22 -4 25 -35 25 l-36 0 3 -102z"/>
<path d="M1610 729 c-42 -9 -60 -32 -60 -76 0 -67 74 -104 144 -72 45 21 58
99 21 129 -22 18 -68 27 -105 19z"/>
<path d="M2100 727 c-74 -37 -52 -157 29 -157 15 0 32 5 38 11 8 8 13 8 17 0
4 -6 18 -11 32 -11 23 0 24 2 24 80 l0 81 -37 -2 c-21 -1 -47 1 -58 4 -11 4
-31 1 -45 -6z"/>
<path d="M2558 732 c-34 -4 -68 -45 -68 -82 0 -41 29 -70 76 -77 59 -8 101 17
110 63 12 64 -39 105 -118 96z"/>
<path d="M2806 733 c-3 -3 -28 -5 -56 -4 l-50 1 0 -80 0 -80 30 0 c28 0 30 2
30 39 0 52 8 71 31 71 16 0 19 -8 19 -55 0 -54 0 -55 30 -55 l30 0 0 69 c0 43
-5 72 -12 78 -19 14 -45 22 -52 16z"/>
<path d="M1230 667 c0 -49 4 -68 18 -80 21 -19 63 -22 79 -6 8 8 13 8 17 0 4
-6 18 -11 32 -11 23 0 24 2 24 80 l0 80 -30 0 c-29 0 -30 -2 -30 -44 0 -44
-19 -74 -40 -61 -5 3 -10 28 -10 56 0 48 -1 49 -30 49 l-30 0 0 -63z"/>
<path d="M1760 649 l0 -79 29 0 c29 0 30 2 33 53 3 44 6 52 23 52 17 0 20 -8
23 -52 3 -51 4 -53 33 -53 29 0 29 1 29 55 0 48 2 55 20 55 18 0 20 -7 20 -55
0 -54 0 -55 30 -55 l30 0 0 68 c0 40 -5 73 -12 80 -15 15 -62 16 -88 2 -12 -6
-21 -7 -25 -1 -3 6 -37 10 -75 10 l-70 0 0 -80z"/>
</g>
</svg>
